<svg width="40" height="40" viewBox="0 0 40 40" fill="none" xmlns="http://www.w3.org/2000/svg">
  <path
    d="M20.025 39.9999C31.075 39.9999 40 31.025 40 19.975C39.975 8.94999 31 0 19.975 0C8.95 0 0 8.99999 0 20.025C0 31.05 9 40.0249 20.025 39.9999ZM19.975 2.05C29.925 2.05 37.95 10.025 37.975 19.95C38 29.925 30 37.95 20.025 37.95C10.1 37.95 2.075 29.95 2.05 20.025C2.05 10.1 10.05 2.075 19.975 2.05Z"
    fill="#0077B6" />
  <path
    d="M10.05 24.5C10.8 24.9 11.675 24.725 12.4 24C14.925 21.525 17.45 19.025 20.05 16.475C20.25 16.725 20.4 16.9 20.575 17.075C22.925 19.475 25.3 21.85 27.65 24.225C28.5 25.075 29.6 25.125 30.375 24.375C31.15 23.625 31.125 22.45 30.275 21.6C27.3 18.625 24.325 15.675 21.35 12.7C20.425 11.775 19.375 11.775 18.45 12.7C16.9 14.25 15.35 15.8 13.8 17.35C12.425 18.725 11.025 20.1 9.675 21.475C8.725 22.45 8.925 23.9 10.05 24.5Z"
    fill="#0077B6" />
</svg>