<svg width="16" height="16" viewBox="0 0 16 16" fill="none" xmlns="http://www.w3.org/2000/svg">
  <path d="M13.702 0.943051C13.912 0.573051 13.822 0.323051 13.392 0.0930509C13.072 -0.0869492 12.812 -0.00694913 12.612 0.343051C12.442 0.653051 12.262 0.953051 12.092 1.26305C11.782 1.80305 11.472 2.35305 11.162 2.89305C11.102 2.87305 11.072 2.86305 11.032 2.84305C8.84201 1.87305 6.67201 1.95305 4.55201 3.04305C2.63201 4.02305 1.22201 5.56305 0.0320139 7.32305C-0.0179861 7.40305 -0.00798609 7.57305 0.0520139 7.67305C0.182014 7.90305 0.342014 8.11305 0.502014 8.32305C1.54201 9.71305 2.73201 10.9331 4.27201 11.7731C4.73201 12.0331 5.23201 12.2331 5.72201 12.4631C5.72201 12.4731 5.70201 12.5031 5.69201 12.5331C5.32201 13.1731 4.96201 13.8231 4.59201 14.4631C4.49201 14.6431 4.43201 14.8231 4.54201 15.0031C4.68201 15.2531 4.92201 15.3731 5.18201 15.4031C5.42201 15.4231 5.56201 15.2631 5.68201 15.0531C7.54201 11.7931 9.40201 8.52305 11.262 5.26305C12.082 3.82305 12.902 2.38305 13.722 0.943051H13.702ZM8.00201 8.43305C7.96201 8.50305 7.84201 8.56305 7.76201 8.55305C7.26201 8.49305 6.78201 7.99305 6.75201 7.51305C6.71201 6.97305 7.11201 6.39305 7.63201 6.22305C8.15201 6.05305 8.69201 6.24305 8.98201 6.72305C8.66201 7.29305 8.33201 7.87305 8.00201 8.43305ZM9.69201 5.48305C8.79201 4.75305 7.83201 4.57305 6.82201 5.15305C5.89201 5.69305 5.46201 6.55305 5.51201 7.61305C5.57201 8.70305 6.20201 9.39305 7.23201 9.78305C6.96201 10.2631 6.69201 10.7431 6.41201 11.2331C5.39201 10.9531 4.50201 10.4431 3.69201 9.80305C3.01201 9.26305 2.40201 8.63305 1.86201 7.95305C1.57201 7.59305 1.58201 7.33305 1.87201 6.96305C2.83201 5.78305 3.92201 4.77305 5.31201 4.11305C6.99201 3.32305 8.68201 3.26305 10.402 3.98305C10.432 3.99305 10.462 4.01305 10.512 4.04305C10.232 4.53305 9.96201 5.00305 9.70201 5.47305L9.69201 5.48305Z" fill="#C0C0C0"/>
  <path d="M15.242 6.31305C14.662 5.56305 14.022 4.88305 13.272 4.25305C13.052 4.63305 12.842 5.00305 12.622 5.38305C12.652 5.41305 12.672 5.44305 12.692 5.46305C13.182 5.98305 13.682 6.50305 14.162 7.03305C14.422 7.33305 14.412 7.64305 14.162 7.94305C13.812 8.35305 13.452 8.77305 13.062 9.14305C12.012 10.1631 10.822 10.9531 9.37201 11.2931C9.31201 11.3031 9.24201 11.3331 9.21201 11.3831C8.95201 11.8331 8.69201 12.2931 8.41201 12.7731C8.54201 12.7731 8.63201 12.7731 8.71201 12.7531C9.66201 12.6431 10.562 12.3731 11.412 11.9331C13.312 10.9431 14.722 9.44305 15.912 7.70305C16.022 7.54305 16.012 7.39305 15.902 7.24305C15.672 6.93305 15.462 6.61305 15.222 6.31305H15.242Z" fill="#C0C0C0"/>
</svg>