<svg width="20" height="16" viewBox="0 0 20 16" fill="none" xmlns="http://www.w3.org/2000/svg">
  <path d="M10.0208 0C8.36231 0 6.7038 0 5.04529 0C6.7038 0 8.36231 0 10.0115 0H10.0208Z" fill="#1749A5"/>
  <path d="M20 3.27C20 2.59 19.7751 1.97 19.3909 1.42C18.7163 0.45 17.8074 0 16.6923 0C14.4716 0 12.2415 0 10.0208 0C8.36231 0 6.7038 0 5.05466 0C4.50182 0 3.94898 0 3.39615 0C3.0963 0 2.78709 0.02 2.48725 0.09C1.03488 0.45 0.0135346 1.81 0.0041645 3.44C-0.00520562 6.48 0.0041645 9.53 0.0041645 12.57C0.0041645 12.73 0.0041645 12.89 0.0322749 13.04C0.294638 14.82 1.60645 16 3.32119 16C7.77199 16 12.2322 16 16.683 16C16.9641 16 17.2452 15.97 17.5169 15.91C18.9787 15.55 19.9813 14.2 19.9906 12.57C20 11.01 19.9906 9.44 19.9906 7.87C19.9906 6.34 19.9906 4.8 19.9906 3.27H20ZM19.0724 12.51C19.0724 13.62 18.5008 14.5 17.545 14.86C17.292 14.95 17.0109 15 16.7392 15C12.2509 15 7.75325 15 3.26497 15C1.92504 15 0.941176 13.96 0.941176 12.53C0.941176 9.51 0.941176 6.49 0.941176 3.47C0.941176 2.03 1.92504 1 3.28371 0.99C3.84591 0.99 4.40812 0.99 4.97033 0.99C6.65695 0.99 8.3342 0.99 10.0208 0.99C12.2603 0.99 14.4997 0.99 16.7392 0.99C17.9479 0.99 18.9037 1.86 19.0536 3.09C19.0724 3.21 19.0724 3.34 19.0724 3.47C19.0724 6.48 19.0724 9.49 19.0724 12.5V12.51Z" fill="#1749A5"/>
  <path d="M16.3831 4.69C16.7767 4.28 17.1796 3.86 17.5731 3.44C17.7605 3.24 17.7418 2.98 17.5638 2.78C17.3857 2.58 17.1515 2.54 16.9453 2.7C16.8704 2.76 16.7954 2.83 16.7298 2.9C14.5653 5.15 12.4008 7.4 10.227 9.65C10.1614 9.72 10.0864 9.78 10.0115 9.86C9.92712 9.77 9.85216 9.7 9.78657 9.63C7.62207 7.38 5.46694 5.14 3.30245 2.9C3.22749 2.82 3.14315 2.74 3.04945 2.67C2.86205 2.54 2.61843 2.6 2.44977 2.8C2.30921 2.97 2.29047 3.21 2.42166 3.39C2.48725 3.48 2.56221 3.55 2.63717 3.63C4.03332 5.08 5.42946 6.54 6.82561 7.99C6.8912 8.06 6.97553 8.09 7.07861 8.15C6.61947 8.61 6.23529 9 5.85112 9.39C4.77356 10.48 3.68662 11.57 2.60906 12.67C2.3748 12.91 2.34669 13.19 2.52473 13.4C2.73087 13.64 3.0026 13.65 3.2556 13.42C3.3493 13.33 3.443 13.24 3.52733 13.14C4.85789 11.8 6.17907 10.45 7.50963 9.11C7.57522 9.05 7.64081 8.99 7.71577 8.92C7.79073 8.99 7.84695 9.05 7.90318 9.11C8.45601 9.69 9.01822 10.27 9.57106 10.85C9.89901 11.19 10.1239 11.19 10.4518 10.85C11.0234 10.26 11.5856 9.67 12.1572 9.08C12.2134 9.02 12.279 8.97 12.3446 8.9C12.4196 8.97 12.4758 9.03 12.5414 9.08C13.5721 10.12 14.6028 11.17 15.6335 12.22C16.0271 12.62 16.4112 13.02 16.8142 13.41C17.0672 13.66 17.3295 13.65 17.545 13.41C17.7512 13.17 17.7231 12.91 17.442 12.63C16.3082 11.48 15.1744 10.34 14.0312 9.19C13.7033 8.86 13.3753 8.53 12.9818 8.12C13.0755 8.07 13.1598 8.04 13.216 7.98C14.2749 6.88 15.3337 5.79 16.3831 4.69Z" fill="#1749A5"/>
</svg>