<svg width="20" height="11" viewBox="0 0 20 11" fill="none" xmlns="http://www.w3.org/2000/svg">
  <path d="M1.65834 6.18C2.85714 7.44 4.7952 8.84 5.77423 9.1C4.7952 8.86 2.85714 7.46 1.65834 6.18Z" fill="#0247A2"/>
  <path d="M14.4655 1.08C13.2667 0.52 12.028 0.16 10.7093 0.06C10.6294 0.06 10.5694 0.02 10.4895 0H9.11089C8.45155 0.12 7.79221 0.2 7.15285 0.36C4.77522 0.98 2.83716 2.32 1.15884 4.06C0.759241 4.48 0.3996 4.96 0 5.4V5.54C0.25974 5.86 0.47952 6.22 0.759241 6.52C2.73726 8.7 5.11488 10.2 8.03197 10.78C8.55145 10.88 9.09091 10.94 9.63037 11H10.9491C11.5485 10.9 12.1678 10.84 12.7672 10.7C15.6244 10.04 17.8422 8.42 19.6004 6.12C19.7403 5.92 19.8601 5.72 20 5.52V5.38C19.8801 5.24 19.7802 5.08 19.6603 4.94C18.1618 3.34 16.4835 1.96 14.4855 1.04L14.4655 1.08ZM5.77423 9.1C4.7952 8.86 2.85714 7.46 1.65834 6.18C1.43856 5.94 1.23876 5.72 1.07892 5.5C2.01798 4.16 4.55544 2.2 5.91409 1.76C5.79421 1.92 5.69431 2.06 5.57443 2.22C5.47453 2.38 5.37463 2.52 5.29471 2.68C5.15485 2.9 5.03497 3.14 4.93506 3.36C4.0959 5.26 4.37562 7.16 5.75425 9.1H5.77423ZM9.99001 10.1C7.45255 10.1 5.39461 8.06 5.39461 5.52C5.39461 2.98 7.43257 0.92 9.97003 0.92C12.5275 0.92 14.5654 2.96 14.5654 5.54C14.5654 8.06 12.5075 10.1 9.99001 10.1ZM13.8861 9.44C15.9041 7.04 16.024 4.58 14.2657 2.02C15.4046 2.42 17.7822 4.22 18.9011 5.54C17.5824 7.3 15.9441 8.62 13.8661 9.44H13.8861Z" fill="#0247A2"/>
  <path d="M9.41059 3.38C9.89011 3.68 10.1498 4.1 10.03 4.68C9.93007 5.14 9.63037 5.44 9.19081 5.56C8.59141 5.72 8.17183 5.44 7.83217 4.92C7.51249 5.98 8.09191 7.14 9.05095 7.58C9.99001 8.02 11.1089 7.74 11.7483 6.94C12.4076 6.1 12.4076 4.96 11.7483 4.1C11.1888 3.38 10.1299 3.04 9.41059 3.38Z" fill="#0247A2"/>
</svg>
