<svg width="16" height="16" viewBox="0 0 16 16" fill="none" xmlns="http://www.w3.org/2000/svg">
  <path d="M8 2C4.667 2 2 4.667 0.667 7.333C0.444 7.778 0.444 8.222 0.667 8.667C2 11.333 4.667 14 8 14C11.333 14 14 11.333 15.333 8.667C15.556 8.222 15.556 7.778 15.333 7.333C14 4.667 11.333 2 8 2ZM8 12C5.789 12 4 10.211 4 8C4 5.789 5.789 4 8 4C10.211 4 12 5.789 12 8C12 10.211 10.211 12 8 12ZM8 6C6.895 6 6 6.895 6 8C6 9.105 6.895 10 8 10C9.105 10 10 9.105 10 8C10 6.895 9.105 6 8 6Z" fill="#C0C0C0"/>
</svg>