<svg width="20" height="20" viewBox="0 0 20 20" fill="none" xmlns="http://www.w3.org/2000/svg">
  <path d="M16.7896 7.23764C16.5223 7.18106 16.2632 7.18106 16.004 7.17298C15.9068 7.17298 15.8096 7.17298 15.7124 7.17298V6.85776C15.7124 6.38089 15.7124 5.9121 15.7124 5.44331C15.7043 5.06343 15.68 4.66739 15.599 4.27134C14.9915 1.49903 12.5131 -0.279137 9.67019 0.0360828C7.34564 0.294725 5.40177 2.13755 5.0535 4.42491C4.9806 4.90178 4.9725 5.38674 4.9725 5.86361C4.9725 6.03334 4.9725 6.21116 4.9644 6.38089C4.9644 6.62337 4.9644 6.86584 4.9644 7.12449V7.17298H4.9563C4.72952 7.17298 4.50273 7.17298 4.28405 7.17298C2.98813 7.25381 2.0081 8.27221 2 9.54925C2 12.2407 2 14.9322 2 17.6237C2 18.9331 3.06913 20 4.37314 20C6.35751 20 8.34188 20 10.3262 20C12.3106 20 14.295 20 16.2793 20C17.5834 20 18.6525 18.9331 18.6606 17.6318C18.6687 14.9322 18.6687 12.2327 18.6606 9.53309C18.6606 8.42578 17.8668 7.46395 16.7815 7.23764H16.7896ZM17.227 9.70282V17.4702C17.227 18.1733 16.8382 18.5613 16.1417 18.5613H4.53513C3.83048 18.5613 3.4498 18.1733 3.4498 17.4782V9.7109C3.4498 9.00772 3.83858 8.62784 4.53513 8.62784H16.1336C16.8382 8.62784 17.2189 9.0158 17.2189 9.7109L17.227 9.70282ZM6.59239 4.19052C7.10266 2.51743 8.78735 1.33737 10.5287 1.45053C12.4159 1.57177 13.9629 2.95389 14.1978 4.74821C14.2626 5.23317 14.2626 5.71812 14.2545 6.2354C14.2545 6.46172 14.2545 6.69611 14.2545 6.92242C14.2545 7.00325 14.2545 7.08407 14.2545 7.1649H6.4385C6.4385 7.01133 6.43041 6.85776 6.42231 6.69611C6.38991 5.82319 6.35751 4.99877 6.60049 4.19052H6.59239Z" fill="#1749A5"/>
  <path d="M9.33811 11.3193C8.69016 11.8528 8.56056 12.7823 9.05463 13.4208C9.16802 13.5663 9.20042 13.6875 9.18422 13.8653C9.18422 13.8653 9.18422 13.8653 9.18422 13.8734C9.18422 13.9138 9.18422 13.9623 9.18422 14.027C9.18422 14.027 9.18422 14.027 9.18422 14.0351C9.18422 14.0593 9.18422 14.0917 9.18422 14.124V14.2695C9.18422 14.318 9.18422 14.3665 9.18422 14.415C9.18422 14.4796 9.18422 14.5443 9.18422 14.6089C9.20042 15.2798 9.69449 15.789 10.3343 15.789C10.9742 15.789 11.4602 15.2798 11.4764 14.6089C11.4764 14.3099 11.4764 14.0108 11.4764 13.7118C11.4764 13.6309 11.4926 13.5905 11.5412 13.5259C12.0595 12.9197 12.0109 11.9983 11.4359 11.4244C10.8608 10.8505 9.95367 10.802 9.33001 11.3193H9.33811Z" fill="#1749A5"/>
</svg>