<svg width="20" height="24" viewBox="0 0 20 24" fill="none" xmlns="http://www.w3.org/2000/svg">
  <path d="M17.7475 8.68517C17.4268 8.61728 17.1158 8.61728 16.8048 8.60758C16.6881 8.60758 16.5715 8.60758 16.4549 8.60758V8.22931C16.4549 7.65707 16.4549 7.09452 16.4549 6.53198C16.4451 6.07612 16.416 5.60087 16.3188 5.12561C15.5898 1.79883 12.6157 -0.334964 9.20423 0.0432993C6.41477 0.35367 4.08213 2.56506 3.6642 5.30989C3.57672 5.88214 3.567 6.46408 3.567 7.03633C3.567 7.24001 3.567 7.45339 3.55728 7.65707C3.55728 7.94804 3.55728 8.23901 3.55728 8.54938V8.60758H3.54756C3.27542 8.60758 3.00328 8.60758 2.74086 8.60758C1.18576 8.70457 0.00971935 9.92665 0 11.4591C0 14.6889 0 17.9187 0 21.1485C0 22.7197 1.28295 24 2.84777 24C5.22901 24 7.61025 24 9.9915 24C12.3727 24 14.754 24 17.1352 24C18.7 24 19.983 22.7197 19.9927 21.1582C20.0024 17.9187 20.0024 14.6792 19.9927 11.4397C19.9927 10.1109 19.0402 8.95674 17.7378 8.68517H17.7475ZM18.2724 11.6434V20.9642C18.2724 21.808 17.8059 22.2736 16.97 22.2736H3.04216C2.19657 22.2736 1.73976 21.808 1.73976 20.9739V11.6531C1.73976 10.8093 2.20629 10.3534 3.04216 10.3534H16.9603C17.8059 10.3534 18.2627 10.819 18.2627 11.6531L18.2724 11.6434ZM5.51087 5.02862C6.12319 3.02091 8.14482 1.60485 10.2345 1.74064C12.4991 1.88612 14.3555 3.54466 14.6373 5.69786C14.7151 6.2798 14.7151 6.86175 14.7054 7.48249C14.7054 7.75406 14.7054 8.03533 14.7054 8.30691C14.7054 8.4039 14.7054 8.50089 14.7054 8.59788H5.32621C5.32621 8.4136 5.31649 8.22931 5.30677 8.03533C5.26789 6.98783 5.22901 5.99853 5.52059 5.02862H5.51087Z" fill="#CFCFCF"/>
  <path d="M8.80573 13.5832C8.02819 14.2233 7.87268 15.3387 8.46556 16.105C8.60163 16.2795 8.64051 16.425 8.62107 16.6384C8.62107 16.6384 8.62107 16.6384 8.62107 16.6481C8.62107 16.6966 8.62107 16.7548 8.62107 16.8324C8.62107 16.8324 8.62107 16.8324 8.62107 16.8421C8.62107 16.8712 8.62107 16.91 8.62107 16.9488V17.1234C8.62107 17.1816 8.62107 17.2397 8.62107 17.2979C8.62107 17.3755 8.62107 17.4531 8.62107 17.5307C8.64051 18.3357 9.23339 18.9468 10.0012 18.9468C10.769 18.9468 11.3522 18.3357 11.3716 17.5307C11.3716 17.1719 11.3716 16.813 11.3716 16.4541C11.3716 16.3571 11.3911 16.3086 11.4494 16.231C12.0714 15.5036 12.0131 14.3979 11.323 13.7093C10.633 13.0207 9.54441 12.9625 8.79602 13.5832H8.80573Z" fill="#CFCFCF"/>
</svg>