<svg width="20" height="20" viewBox="0 0 20 20" fill="none" xmlns="http://www.w3.org/2000/svg">
  <path d="M3.41425 17.5237C4.90486 18.8403 6.64529 19.6485 8.61889 19.9069C11.7167 20.2985 14.4564 19.4569 16.7715 17.3487C18.3953 15.8738 19.4029 14.0323 19.8193 11.8741C20.8269 6.68284 17.5209 1.52489 12.3912 0.291645C11.8583 0.166654 11.3003 0.116658 10.759 0.0333309C10.7008 0.0249981 10.6425 0.00833271 10.5925 0C10.2011 0 9.80972 0 9.41833 0C9.03526 0.0499963 8.66053 0.0916599 8.27747 0.149989C6.17896 0.508296 4.38856 1.45823 2.88962 2.97478C1.46563 4.41634 0.557938 6.13288 0.174876 8.1244C0.108257 8.4827 0.0832743 8.84934 0.0333097 9.20765C0.0249823 9.27431 0.00832743 9.34931 0 9.41597V10.5909C0.0499646 10.9659 0.0916018 11.3492 0.149894 11.7241C0.557938 14.0406 1.65716 15.9738 3.40592 17.5237H3.41425ZM15.1976 17.1154C13.9818 18.0153 12.6161 18.557 11.1171 18.7486C10.7424 18.7986 10.3677 18.8153 10.1595 18.8319C7.91939 18.8069 6.06237 18.1487 4.44685 16.8487C4.39688 16.8071 4.35525 16.7238 4.36357 16.6654C4.68834 14.2239 6.61198 12.2324 9.03526 11.8241C12.0248 11.3242 14.8312 13.1824 15.539 16.1321C15.6889 16.7404 15.6889 16.7488 15.1976 17.1154ZM6.96173 7.49944C6.96173 5.8329 8.33576 4.458 10.0012 4.458C11.6751 4.458 13.0491 5.84957 13.0324 7.50778C13.0158 9.18265 11.6501 10.5326 9.99292 10.5242C8.31911 10.5242 6.96173 9.15765 6.96173 7.49111V7.49944ZM3.25603 4.32468C6.53703 0.458299 12.2247 0.09166 15.9304 3.47474C19.6527 6.88282 19.6361 12.3574 16.6632 15.7572C16.0053 13.4657 14.5813 11.8658 12.3746 10.9742C14.7895 9.24098 14.5813 6.11621 12.9825 4.52466C11.3503 2.89145 8.73548 2.87479 7.03668 4.483C5.48778 5.95789 5.07973 9.15765 7.61127 10.9742C5.41283 11.8658 3.97219 13.449 3.32265 15.7322C0.857726 13.049 0.074947 8.0494 3.2477 4.30801L3.25603 4.32468Z" fill="#1749A5"/>
</svg>