<svg width="25" height="24" viewBox="0 0 25 24" fill="none" xmlns="http://www.w3.org/2000/svg">
  <path d="M4.1 21.03C5.89 22.61 7.98 23.58 10.35 23.89C14.07 24.36 17.36 23.35 20.14 20.82C22.09 19.05 23.3 16.84 23.8 14.25C25.01 8.02 21.04 1.83 14.88 0.35C14.24 0.2 13.57 0.14 12.92 0.04C12.85 0.03 12.78 0.01 12.72 0C12.25 0 11.78 0 11.31 0C10.85 0.06 10.4 0.11 9.94 0.18C7.42 0.61 5.27 1.75 3.47 3.57C1.76 5.3 0.67 7.36 0.21 9.75C0.13 10.18 0.1 10.62 0.04 11.05C0.03 11.13 0.01 11.22 0 11.3V12.71C0.06 13.16 0.11 13.62 0.18 14.07C0.67 16.85 1.99 19.17 4.09 21.03H4.1ZM18.25 20.54C16.79 21.62 15.15 22.27 13.35 22.5C12.9 22.56 12.45 22.58 12.2 22.6C9.51 22.57 7.28 21.78 5.34 20.22C5.28 20.17 5.23 20.07 5.24 20C5.63 17.07 7.94 14.68 10.85 14.19C14.44 13.59 17.81 15.82 18.66 19.36C18.84 20.09 18.84 20.1 18.25 20.54ZM8.36 9C8.36 7 10.01 5.35 12.01 5.35C14.02 5.35 15.67 7.02 15.65 9.01C15.63 11.02 13.99 12.64 12 12.63C9.99 12.63 8.36 10.99 8.36 8.99V9ZM3.91 5.19C7.85 0.55 14.68 0.11 19.13 4.17C23.6 8.26 23.58 14.83 20.01 18.91C19.22 16.16 17.51 14.24 14.86 13.17C17.76 11.09 17.51 7.34 15.59 5.43C13.63 3.47 10.49 3.45 8.45 5.38C6.59 7.15 6.1 10.99 9.14 13.17C6.5 14.24 4.77 16.14 3.99 18.88C1.03 15.66 0.0900002 9.66 3.9 5.17L3.91 5.19Z" fill="#CFCFCF"/>
</svg>